<svg width="63" height="64" viewBox="0 0 63 64" fill="none" xmlns="http://www.w3.org/2000/svg">
<path d="M20.296 20.4648C20.296 20.4648 10.9879 23.8474 9.94621 33.2289C8.95326 42.1706 17.6075 41.06 19.6462 38.8407C21.6849 36.6215 23.2952 24.5972 23.2952 24.5972L20.296 20.4648Z" fill="white" stroke="#000001" stroke-width="1.01334" stroke-linecap="round" stroke-linejoin="round"/>
<path d="M50.5444 33.6446C51.1435 36.1536 55.0482 43.9746 61.3085 51.6882C62.5695 53.2426 62.8883 54.6572 60.9247 55.8368C58.9611 57.0163 50.6277 57.5594 46.0508 53.6865L50.5444 33.6426V33.6446Z" fill="white" stroke="#000001" stroke-width="1.01334" stroke-linecap="round" stroke-linejoin="round"/>
<path d="M33.0901 55.4776C33.0901 55.4776 33.346 59.2594 32.6089 61.1159C31.8718 62.9723 30.3773 62.9905 26.9131 63.0331C23.449 63.0756 21.9524 62.5062 21.4022 61.0956C20.8519 59.685 21.5951 48.668 21.5951 48.668L33.0901 55.4776Z" fill="white" stroke="#000001" stroke-width="1.01334" stroke-linecap="round" stroke-linejoin="round"/>
<path d="M38.1016 6.57029C38.1016 6.57029 39.6976 4.70777 42.1729 5.45359C44.6725 6.20954 45.2471 8.55847 44.8532 10.0744C44.1973 12.5936 41.32 12.9037 41.32 12.9037L38.1016 6.57029Z" fill="#0D529D" stroke="#000001" stroke-width="1.01334" stroke-linecap="round" stroke-linejoin="round"/>
<path d="M41.7578 12.8283C41.7578 12.8283 43.2868 10.909 45.7337 11.6345C48.2049 12.3662 48.8201 14.7496 48.4648 16.2959C47.8739 18.8678 45.0534 19.2265 45.0534 19.2265L41.7578 12.8283Z" fill="#0D529D" stroke="#000001" stroke-width="1.01334" stroke-linecap="round" stroke-linejoin="round"/>
<path d="M45.0547 19.7736C45.0547 19.7736 46.5837 17.8543 49.0306 18.5799C51.5018 19.3115 52.117 21.6949 51.7617 23.2412C51.1708 25.8131 48.3503 26.1718 48.3503 26.1718L45.0547 19.7736Z" fill="#0D529D" stroke="#000001" stroke-width="1.01334" stroke-linecap="round" stroke-linejoin="round"/>
<path d="M32.0742 3.43907C32.0742 3.43907 32.7301 1.30497 35.1505 1.02934C37.5974 0.751685 39.0005 2.5007 39.2462 3.90722C39.6564 6.24601 38.1761 6.97967 38.1761 6.97967L32.0763 3.43704L32.0742 3.43907Z" fill="#0D529D" stroke="#000001" stroke-width="1.01334" stroke-linecap="round" stroke-linejoin="round"/>
<path d="M19.7725 21.1173C19.7725 21.1173 20.136 21.5226 20.1319 21.551C20.1177 21.6726 19.9695 21.7111 19.7238 21.8813C19.6669 21.9198 19.6304 21.9381 19.5248 21.9989C19.4943 22.0171 19.4801 22.0556 19.47 22.086C18.7674 24.4998 17.1368 31.1797 17.7968 39.3148C18.5684 48.8341 23.6996 57.0503 33.7083 57.0807C47.967 57.1253 53.5551 49.6124 50.757 34.1671C48.1721 19.9013 42.8621 10.3009 37.2029 5.97593C31.6168 1.70571 25.0581 2.05634 21.0924 4.46201C14.2818 8.59238 15.7317 16.9464 19.7745 21.1213L19.7725 21.1173Z" fill="white"/>
<path d="M28.9094 27.927C39.3161 26.9907 41.6898 40.8856 42.0472 44.0756C42.6746 53.8787 37.05 54.0732 36.6215 56.4667C36.0895 56.6228 35.5189 56.7383 34.9036 56.8092C28.5459 57.5429 24.8625 52.3749 22.8603 45.9746C20.8582 39.5723 20.4358 28.689 28.9094 27.927Z" fill="#0D529D"/>
<path d="M18.463 26.498C17.866 29.7651 17.3706 34.315 17.7869 39.4425C18.1402 43.81 19.4235 48.0072 21.6632 51.1607" stroke="#000001" stroke-width="1.01334" stroke-linecap="round" stroke-linejoin="round"/>
<path d="M51.9798 37.2519C51.4438 36.3825 50.9057 35.1847 50.7452 34.295C48.1603 20.0292 42.8504 10.4288 37.1912 6.10386C31.6051 1.83364 25.0464 2.18427 21.0807 4.58994C14.2701 8.72031 15.72 17.0743 19.7628 21.2493" stroke="#000001" stroke-width="1.01334" stroke-linecap="round" stroke-linejoin="round"/>
<path d="M29.5156 56.6635C30.801 57.0141 32.1939 57.2046 33.6986 57.2087C39.5669 57.2269 43.9672 55.9643 46.9176 53.3965" stroke="#000001" stroke-width="1.01334" stroke-linecap="round" stroke-linejoin="round"/>
<path d="M50.2895 51.5908C50.0459 55.2388 49.6479 60.0036 49.1666 61.1162C48.3645 62.9727 46.7381 62.9909 42.9713 63.0335C39.2046 63.076 37.5741 62.5065 36.9751 61.096C36.3761 59.6854 36.7273 55.709 36.7273 55.709" fill="white"/>
<path d="M50.2895 51.5908C50.0459 55.2388 49.6479 60.0036 49.1666 61.1162C48.3645 62.9727 46.7381 62.9909 42.9713 63.0334C39.2046 63.076 37.5741 62.5065 36.9751 61.096C36.3761 59.6854 36.7273 55.709 36.7273 55.709" stroke="#000001" stroke-width="1.01334" stroke-linecap="round" stroke-linejoin="round"/>
<path d="M34.9464 8.32652C35.6571 8.40354 36.2399 8.71968 36.6947 9.27297C37.1374 9.8303 37.3201 10.4667 37.2409 11.1801C37.1617 11.8955 36.847 12.4731 36.2947 12.9149C35.7302 13.3608 35.0926 13.5473 34.3819 13.4682C33.6712 13.3892 33.0864 13.073 32.6437 12.5157C32.195 11.9644 32.0102 11.33 32.0874 10.6146C32.1665 9.89921 32.4854 9.31959 33.0438 8.87169C33.5961 8.42987 34.2296 8.24748 34.9464 8.32652Z" fill="#385DA4"/>
<path d="M20.1051 7.49399C20.7123 7.56492 21.2077 7.87297 21.5915 8.42017C21.9651 8.97143 22.1134 9.60578 22.0382 10.3212C21.9631 11.0366 21.687 11.6183 21.2098 12.0662C20.7224 12.5181 20.1742 12.7106 19.565 12.6397C18.9518 12.5688 18.4604 12.2587 18.0868 11.7054C17.7091 11.1582 17.5568 10.5279 17.6319 9.8125C17.707 9.09708 17.9852 8.51339 18.4685 8.06144C18.9457 7.61355 19.4919 7.42506 20.1051 7.49599V7.49399Z" fill="#385DA4"/>
<path d="M26.9484 60.6701C26.0692 60.6012 25.6102 61.1241 25.3483 62.3908C25.4173 61.5518 25.0315 60.6418 24.1584 60.6377C23.4172 60.6337 22.806 61.1768 22.5664 62.3624C23.1187 62.6705 23.87 62.865 24.8792 62.9623C24.997 62.9623 25.1209 62.9623 25.2529 62.9603C26.7129 62.942 27.651 62.9785 28.5505 62.8732C28.5322 61.6531 27.7728 60.733 26.9504 60.6701H26.9484Z" fill="white" stroke="#000001" stroke-width="1.01334" stroke-linecap="round" stroke-linejoin="round"/>
<path d="M43.0061 60.6701C42.0497 60.6012 41.5501 61.1241 41.2659 62.3908C41.341 61.5518 40.9207 60.6418 39.9704 60.6377C39.1642 60.6337 38.5002 61.1768 38.2383 62.3624C38.8393 62.6705 39.6556 62.865 40.7542 62.9623C40.8821 62.9623 41.0161 62.9623 41.1623 62.9603C42.7522 62.942 43.7695 62.9785 44.7503 62.8732C44.73 61.6531 43.9036 60.733 43.0081 60.6701H43.0061Z" fill="white" stroke="#000001" stroke-width="1.01334" stroke-linecap="round" stroke-linejoin="round"/>
<path d="M34.0039 35.1992C34.0039 35.1992 34.7451 39.5201 39.5636 39.7045C44.3821 39.889 46.1122 37.9129 46.3599 37.4529" fill="white"/>
<path d="M34.0039 35.1992C34.0039 35.1992 34.7451 39.5201 39.5636 39.7045C44.3821 39.889 46.1122 37.9129 46.3599 37.4529" stroke="#000001" stroke-width="1.01334" stroke-linecap="round" stroke-linejoin="round"/>
<path d="M32.4856 11.7269C28.2356 12.1606 24.4526 11.8972 21.1367 10.9365C21.1367 10.9365 21.4596 16.141 27.3503 16.0498C32.8856 15.9647 32.4856 11.7269 32.4856 11.7269Z" fill="#FEFEFF" stroke="#000001" stroke-width="1.01334" stroke-linecap="round" stroke-linejoin="round"/>
<path d="M31.612 10.1037C31.612 10.1037 29.6403 9.65991 29.7337 9.08636C29.8271 8.51281 31.4759 8.05273 31.4759 8.05273" stroke="#000001" stroke-width="1.01334" stroke-linecap="round" stroke-linejoin="round"/>
<path d="M22.0781 9.44345C22.0781 9.44345 23.6559 9.03001 23.5726 8.45646C23.4894 7.88291 22.1573 7.39648 22.1573 7.39648" stroke="#000001" stroke-width="1.01334" stroke-linecap="round" stroke-linejoin="round"/>
<path d="M31.529 11.8428C31.5574 12.9027 31.0762 13.4418 30.4081 13.4114C29.3542 13.3628 29.3664 12.0069 29.3664 12.0069C29.1288 12.9534 28.6517 13.4722 27.9369 13.458C27.2222 13.4418 26.7287 12.8662 26.6719 11.8691C28.3897 12.0475 30.0243 12.0698 31.5269 11.8448L31.529 11.8428Z" fill="white" stroke="#000001" stroke-width="1.01334" stroke-linecap="round" stroke-linejoin="round"/>
<path d="M8.98654 25.6541C8.98654 25.6541 8.38346 23.8321 10.0567 23.0296C11.7298 22.227 12.5766 23.4856 12.5766 23.4856C12.5766 23.4856 13.8091 21.8379 15.3625 22.3405C16.9159 22.8431 16.8936 23.8098 16.8936 23.8098C16.8936 23.8098 18.2662 23.4187 19.3181 24.3834C20.3922 25.3684 19.9618 26.8134 19.9618 26.8134C19.9618 26.8134 21.2451 27.1924 21.4319 28.8968C21.6309 30.7107 20.3049 31.6896 20.3049 31.6896C20.3049 31.6896 21.0989 33.1022 20.1161 34.5168C19.3201 35.6598 18.3008 35.4369 18.3008 35.4369C18.3008 35.4369 18.0815 36.509 16.6946 36.813C15.3077 37.117 14.6823 36.2942 14.6823 36.2942C14.6823 36.2942 13.8822 37.0664 12.6456 36.8617C11.277 36.6347 11.1532 35.6983 11.1532 35.6983C11.1532 35.6983 9.56121 36.2111 8.65151 35.0924C7.74182 33.9736 8.26163 33.396 8.26163 33.396C8.26163 33.396 6.37117 33.5622 6.22903 31.724C6.08689 29.8879 7.05953 29.5474 7.05953 29.5474C7.05953 29.5474 5.85338 27.926 6.66358 26.6735C7.47377 25.419 8.98654 25.6541 8.98654 25.6541Z" fill="#F5E663" stroke="#E5B428" stroke-width="1.01334" stroke-linecap="round" stroke-linejoin="round"/>
<path d="M11.367 27.9528C11.367 27.9528 10.3517 27.8535 10.2035 29.1851C10.0552 30.5166 10.9873 30.6483 10.9873 30.6483" stroke="#E5B428" stroke-width="1.01334" stroke-linecap="round" stroke-linejoin="round"/>
<path d="M15.0508 32.6343C15.0508 32.6343 15.8569 33.1693 16.5839 32.6343C17.3128 32.0993 17.0448 31.2562 17.0448 31.2562C17.0448 31.2562 17.9931 31.0049 18.1332 29.9591C18.2692 28.9275 17.4651 28.4229 17.4651 28.4229" stroke="#E5B428" stroke-width="1.01334" stroke-linecap="round" stroke-linejoin="round"/>
<path d="M31.1506 25.6541C31.1506 25.6541 30.5475 23.8321 32.2207 23.0296C33.8939 22.227 34.7407 23.4856 34.7407 23.4856C34.7407 23.4856 35.9732 21.8379 37.5266 22.3405C39.08 22.8431 39.0576 23.8098 39.0576 23.8098C39.0576 23.8098 40.4303 23.4187 41.4821 24.3834C42.5563 25.3684 42.1258 26.8134 42.1258 26.8134C42.1258 26.8134 43.4092 27.1924 43.596 28.8968C43.795 30.7107 42.469 31.6896 42.469 31.6896C42.469 31.6896 43.263 33.1022 42.2802 34.5168C41.4842 35.6598 40.4648 35.4369 40.4648 35.4369C40.4648 35.4369 40.2455 36.509 38.8586 36.813C37.4718 37.117 36.8464 36.2942 36.8464 36.2942C36.8464 36.2942 36.0463 37.0664 34.8097 36.8617C33.4411 36.6347 33.3172 35.6983 33.3172 35.6983C33.3172 35.6983 31.7252 36.2111 30.8156 35.0924C29.9059 33.9736 30.4257 33.396 30.4257 33.396C30.4257 33.396 28.5352 33.5622 28.3931 31.724C28.251 29.8879 29.2236 29.5474 29.2236 29.5474C29.2236 29.5474 28.0174 27.926 28.8276 26.6735C29.6378 25.419 31.1506 25.6541 31.1506 25.6541Z" fill="#F5E663" stroke="#E5B428" stroke-width="1.01334" stroke-linecap="round" stroke-linejoin="round"/>
<path d="M33.5311 27.9519C33.5311 27.9519 32.5158 27.8526 32.3675 29.1841C32.2193 30.5156 33.1513 30.6474 33.1513 30.6474" stroke="#E5B428" stroke-width="1.01334" stroke-linecap="round" stroke-linejoin="round"/>
<path d="M37.2188 32.6343C37.2188 32.6343 38.0249 33.1693 38.7518 32.6343C39.4808 32.0993 39.2128 31.2562 39.2128 31.2562C39.2128 31.2562 40.1611 31.0049 40.3012 29.9591C40.4372 28.9275 39.6331 28.4229 39.6331 28.4229" stroke="#E5B428" stroke-width="1.01334" stroke-linecap="round" stroke-linejoin="round"/>
<path d="M13.8939 3.41211C13.8939 3.41211 10.5353 6.91218 10.4297 12.5484" stroke="#000001" stroke-width="1.01334" stroke-linecap="round" stroke-linejoin="round"/>
<path d="M10.1719 4.39453C10.1719 4.39453 12.0339 5.35314 13.8939 6.31176" stroke="#000001" stroke-width="1.01334" stroke-linecap="round" stroke-linejoin="round"/>
<path d="M8.48438 8.62012C8.48438 8.62012 11.9648 9.41458 12.5963 9.53415" stroke="#000001" stroke-width="1.01334" stroke-linecap="round" stroke-linejoin="round"/>
<path d="M4.36046 24.8906C4.36046 24.8906 3.43654 26.7349 3.35938 29.5783" stroke="#000001" stroke-width="1.01334" stroke-linecap="round" stroke-linejoin="round"/>
<path d="M1.43533 26.1982C1.43533 26.1982 0.773364 28.4661 1.08201 30.7319" stroke="#000001" stroke-width="1.01334" stroke-linecap="round" stroke-linejoin="round"/>
</svg>
